# xmcd
#
# Track frame offsets:
#	150
#	17065
#	33435
#	49075
#	61602
#	77853
#	94785
#	107957
#	123959
#	143549
#	154455
#	172681
#	188642
#
# Disc length: 2782 seconds
# Revision: 0
# Processed by: cddbd v1.5.2PL0 Copyright (c) Steve Scherf et al.
# Submitted via: dBpowerAMP V12.0
#
DISCID=9d0adc0d
DTITLE=Brandon McPhee - The Country Side
DYEAR=1900
DGENRE=Country
TTITLE0=Let Me Be There  
TTITLE1=Could've Be Me 
TTITLE2=Let's Fall To Pieces
TTITLE3=Under The Hood
TTITLE4=It's A Heartache
TTITLE5=Branded Man
TTITLE6=It Must Be Love
TTITLE7=WherE'm I Gonna Live
TTITLE8=Rose Of My Heart
TTITLE9=I've Got Stripes
TTITLE10=Stand
TTITLE11=She's Not Cryin' Anymore
TTITLE12=Wagon Wheel
EXTD=
EXTT0=
EXTT1=
EXTT2=
EXTT3=
EXTT4=
EXTT5=
EXTT6=
EXTT7=
EXTT8=
EXTT9=
EXTT10=
EXTT11=
EXTT12=
PLAYORDER=
